# xmcd
#
# Track frame offsets:
#	150
#	11484
#	22518
#	33703
#	44651
#	55056
#	65179
#	77928
#	89166
#	102841
#	116669
#	126998
#
# Disc length: 1819 seconds
#
# Revision: 1
# Processed by: cddbd v1.5.2PL0 Copyright (c) Steve Scherf et al.
# Submitted via: audiograbber 1.83.01
#
DISCID=a507190c
DTITLE=Willie Nelson - The Party's Over And Other Great Willie Nelson Songs
DYEAR=1967
DGENRE=Country
TTITLE0=Suffering In Silence
TTITLE1=Hold Me Tighter
TTITLE2=Go Away
TTITLE3=Ghost
TTITLE4=To Make A Long Story Short (She's Gone)
TTITLE5=A Moment Isn't Very Long
TTITLE6=The Party's Over
TTITLE7=There Goes A Man
TTITLE8=Once Alone
TTITLE9=No Tomorrow In Sight
TTITLE10=I'll Stay Around
TTITLE11=End Of Understanding
EXTD=
EXTT0=
EXTT1=
EXTT2=
EXTT3=
EXTT4=
EXTT5=
EXTT6=
EXTT7=
EXTT8=
EXTT9=
EXTT10=
EXTT11=
PLAYORDER=
